<?xml version="1.0" encoding="UTF-8" standalone="no"?>
<!DOCTYPE svg PUBLIC "-//W3C//DTD SVG 1.1//EN"
 "http://www.w3.org/Graphics/SVG/1.1/DTD/svg11.dtd">
<!-- Generated by graphviz version 2.43.0 (0)
 -->
<!-- Title: snakemake_dag Pages: 1 -->
<svg width="295pt" height="620pt"
 viewBox="0.00 0.00 294.50 620.00" xmlns="http://www.w3.org/2000/svg" xmlns:xlink="http://www.w3.org/1999/xlink">
<g id="graph0" class="graph" transform="scale(1 1) rotate(0) translate(4 616)">
<title>snakemake_dag</title>
<polygon fill="white" stroke="transparent" points="-4,4 -4,-616 290.5,-616 290.5,4 -4,4"/>
<!-- 1 -->
<g id="node1" class="node">
<title>1</title>
<path fill="none" stroke="#56a2d8" stroke-width="2" d="M131.5,-108C131.5,-108 76.5,-108 76.5,-108 70.5,-108 64.5,-102 64.5,-96 64.5,-96 64.5,-84 64.5,-84 64.5,-78 70.5,-72 76.5,-72 76.5,-72 131.5,-72 131.5,-72 137.5,-72 143.5,-78 143.5,-84 143.5,-84 143.5,-96 143.5,-96 143.5,-102 137.5,-108 131.5,-108"/>
<text text-anchor="middle" x="104" y="-87.5" font-family="sans" font-size="10.00">iqtree_iqtree</text>
</g>
<!-- 9 -->
<g id="node9" class="node">
<title>9</title>
<path fill="none" stroke="#d85656" stroke-width="2" d="M86,-36C86,-36 12,-36 12,-36 6,-36 0,-30 0,-24 0,-24 0,-12 0,-12 0,-6 6,0 12,0 12,0 86,0 86,0 92,0 98,-6 98,-12 98,-12 98,-24 98,-24 98,-30 92,-36 86,-36"/>
<text text-anchor="middle" x="49" y="-15.5" font-family="sans" font-size="10.00">parse_iqtree_file</text>
</g>
<!-- 1&#45;&gt;9 -->
<g id="edge9" class="edge">
<title>1&#45;&gt;9</title>
<path fill="none" stroke="grey" stroke-width="2" d="M90.4,-71.7C83.88,-63.39 75.93,-53.28 68.75,-44.14"/>
<polygon fill="grey" stroke="grey" stroke-width="2" points="71.37,-41.81 62.44,-36.1 65.87,-46.13 71.37,-41.81"/>
</g>
<!-- 11 -->
<g id="node11" class="node">
<title>11</title>
<path fill="none" stroke="#d8c356" stroke-width="2" d="M190,-36C190,-36 128,-36 128,-36 122,-36 116,-30 116,-24 116,-24 116,-12 116,-12 116,-6 122,0 128,0 128,0 190,0 190,0 196,0 202,-6 202,-12 202,-12 202,-24 202,-24 202,-30 196,-36 190,-36"/>
<text text-anchor="middle" x="159" y="-15.5" font-family="sans" font-size="10.00">get_tip_length</text>
</g>
<!-- 1&#45;&gt;11 -->
<g id="edge11" class="edge">
<title>1&#45;&gt;11</title>
<path fill="none" stroke="grey" stroke-width="2" d="M117.6,-71.7C124.12,-63.39 132.07,-53.28 139.25,-44.14"/>
<polygon fill="grey" stroke="grey" stroke-width="2" points="142.13,-46.13 145.56,-36.1 136.63,-41.81 142.13,-46.13"/>
</g>
<!-- 2 -->
<g id="node2" class="node">
<title>2</title>
<path fill="none" stroke="#56c9d8" stroke-width="2" d="M189.5,-180C189.5,-180 18.5,-180 18.5,-180 12.5,-180 6.5,-174 6.5,-168 6.5,-168 6.5,-156 6.5,-156 6.5,-150 12.5,-144 18.5,-144 18.5,-144 189.5,-144 189.5,-144 195.5,-144 201.5,-150 201.5,-156 201.5,-156 201.5,-168 201.5,-168 201.5,-174 195.5,-180 189.5,-180"/>
<text text-anchor="middle" x="104" y="-159.5" font-family="sans" font-size="10.00">iqtree_generate_nexus_partition_file</text>
</g>
<!-- 2&#45;&gt;1 -->
<g id="edge1" class="edge">
<title>2&#45;&gt;1</title>
<path fill="none" stroke="grey" stroke-width="2" d="M104,-143.7C104,-135.98 104,-126.71 104,-118.11"/>
<polygon fill="grey" stroke="grey" stroke-width="2" points="107.5,-118.1 104,-108.1 100.5,-118.1 107.5,-118.1"/>
</g>
<!-- 3 -->
<g id="node3" class="node">
<title>3</title>
<path fill="none" stroke="#56d8a2" stroke-width="2" d="M145.5,-252C145.5,-252 62.5,-252 62.5,-252 56.5,-252 50.5,-246 50.5,-240 50.5,-240 50.5,-228 50.5,-228 50.5,-222 56.5,-216 62.5,-216 62.5,-216 145.5,-216 145.5,-216 151.5,-216 157.5,-222 157.5,-228 157.5,-228 157.5,-240 157.5,-240 157.5,-246 151.5,-252 145.5,-252"/>
<text text-anchor="middle" x="104" y="-231.5" font-family="sans" font-size="10.00">setup_iqtree_input</text>
</g>
<!-- 3&#45;&gt;2 -->
<g id="edge2" class="edge">
<title>3&#45;&gt;2</title>
<path fill="none" stroke="grey" stroke-width="2" d="M104,-215.7C104,-207.98 104,-198.71 104,-190.11"/>
<polygon fill="grey" stroke="grey" stroke-width="2" points="107.5,-190.1 104,-180.1 100.5,-190.1 107.5,-190.1"/>
</g>
<!-- 4 -->
<g id="node4" class="node">
<title>4</title>
<path fill="none" stroke="#56d8c9" stroke-width="2" d="M149,-324C149,-324 59,-324 59,-324 53,-324 47,-318 47,-312 47,-312 47,-300 47,-300 47,-294 53,-288 59,-288 59,-288 149,-288 149,-288 155,-288 161,-294 161,-300 161,-300 161,-312 161,-312 161,-318 155,-324 149,-324"/>
<text text-anchor="middle" x="104" y="-303.5" font-family="sans" font-size="10.00">process_trimal_files</text>
</g>
<!-- 4&#45;&gt;3 -->
<g id="edge3" class="edge">
<title>4&#45;&gt;3</title>
<path fill="none" stroke="grey" stroke-width="2" d="M104,-287.7C104,-279.98 104,-270.71 104,-262.11"/>
<polygon fill="grey" stroke="grey" stroke-width="2" points="107.5,-262.1 104,-252.1 100.5,-262.1 107.5,-262.1"/>
</g>
<!-- 5 -->
<g id="node5" class="node">
<title>5</title>
<path fill="none" stroke="#56d87b" stroke-width="2" d="M183,-396C183,-396 153,-396 153,-396 147,-396 141,-390 141,-384 141,-384 141,-372 141,-372 141,-366 147,-360 153,-360 153,-360 183,-360 183,-360 189,-360 195,-366 195,-372 195,-372 195,-384 195,-384 195,-390 189,-396 183,-396"/>
<text text-anchor="middle" x="168" y="-375.5" font-family="sans" font-size="10.00">trimal</text>
</g>
<!-- 5&#45;&gt;4 -->
<g id="edge4" class="edge">
<title>5&#45;&gt;4</title>
<path fill="none" stroke="grey" stroke-width="2" d="M152.18,-359.7C144.43,-351.22 134.96,-340.86 126.48,-331.58"/>
<polygon fill="grey" stroke="grey" stroke-width="2" points="128.97,-329.12 119.64,-324.1 123.8,-333.85 128.97,-329.12"/>
</g>
<!-- 10 -->
<g id="node10" class="node">
<title>10</title>
<path fill="none" stroke="#567bd8" stroke-width="2" d="M274.5,-324C274.5,-324 191.5,-324 191.5,-324 185.5,-324 179.5,-318 179.5,-312 179.5,-312 179.5,-300 179.5,-300 179.5,-294 185.5,-288 191.5,-288 191.5,-288 274.5,-288 274.5,-288 280.5,-288 286.5,-294 286.5,-300 286.5,-300 286.5,-312 286.5,-312 286.5,-318 280.5,-324 274.5,-324"/>
<text text-anchor="middle" x="233" y="-303.5" font-family="sans" font-size="10.00">parse_trimal_stats</text>
</g>
<!-- 5&#45;&gt;10 -->
<g id="edge10" class="edge">
<title>5&#45;&gt;10</title>
<path fill="none" stroke="grey" stroke-width="2" d="M184.07,-359.7C191.94,-351.22 201.56,-340.86 210.17,-331.58"/>
<polygon fill="grey" stroke="grey" stroke-width="2" points="212.88,-333.81 217.12,-324.1 207.75,-329.05 212.88,-333.81"/>
</g>
<!-- 6 -->
<g id="node6" class="node">
<title>6</title>
<path fill="none" stroke="#59d856" stroke-width="2" d="M195,-468C195,-468 141,-468 141,-468 135,-468 129,-462 129,-456 129,-456 129,-444 129,-444 129,-438 135,-432 141,-432 141,-432 195,-432 195,-432 201,-432 207,-438 207,-444 207,-444 207,-456 207,-456 207,-462 201,-468 195,-468"/>
<text text-anchor="middle" x="168" y="-447.5" font-family="sans" font-size="10.00">captus_align</text>
</g>
<!-- 6&#45;&gt;5 -->
<g id="edge5" class="edge">
<title>6&#45;&gt;5</title>
<path fill="none" stroke="grey" stroke-width="2" d="M168,-431.7C168,-423.98 168,-414.71 168,-406.11"/>
<polygon fill="grey" stroke="grey" stroke-width="2" points="171.5,-406.1 168,-396.1 164.5,-406.1 171.5,-406.1"/>
</g>
<!-- 7 -->
<g id="node7" class="node">
<title>7</title>
<path fill="none" stroke="#d8a456" stroke-width="2" d="M227,-612C227,-612 109,-612 109,-612 103,-612 97,-606 97,-600 97,-600 97,-588 97,-588 97,-582 103,-576 109,-576 109,-576 227,-576 227,-576 233,-576 239,-582 239,-588 239,-588 239,-600 239,-600 239,-606 233,-612 227,-612"/>
<text text-anchor="middle" x="168" y="-591.5" font-family="sans" font-size="10.00">set_up_selected_samples</text>
</g>
<!-- 7&#45;&gt;6 -->
<g id="edge6" class="edge">
<title>7&#45;&gt;6</title>
<path fill="none" stroke="grey" stroke-width="2" d="M161.35,-575.63C157.8,-565.42 153.8,-552.17 152,-540 149.66,-524.17 149.66,-519.83 152,-504 153.28,-495.35 155.67,-486.15 158.22,-477.89"/>
<polygon fill="grey" stroke="grey" stroke-width="2" points="161.55,-478.96 161.35,-468.37 154.9,-476.78 161.55,-478.96"/>
</g>
<!-- 8 -->
<g id="node8" class="node">
<title>8</title>
<path fill="none" stroke="#d87d56" stroke-width="2" d="M237.5,-540C237.5,-540 172.5,-540 172.5,-540 166.5,-540 160.5,-534 160.5,-528 160.5,-528 160.5,-516 160.5,-516 160.5,-510 166.5,-504 172.5,-504 172.5,-504 237.5,-504 237.5,-504 243.5,-504 249.5,-510 249.5,-516 249.5,-516 249.5,-528 249.5,-528 249.5,-534 243.5,-540 237.5,-540"/>
<text text-anchor="middle" x="205" y="-519.5" font-family="sans" font-size="10.00">wscore_cutoffs</text>
</g>
<!-- 7&#45;&gt;8 -->
<g id="edge8" class="edge">
<title>7&#45;&gt;8</title>
<path fill="none" stroke="grey" stroke-width="2" d="M177.15,-575.7C181.4,-567.64 186.56,-557.89 191.27,-548.98"/>
<polygon fill="grey" stroke="grey" stroke-width="2" points="194.38,-550.58 195.96,-540.1 188.19,-547.31 194.38,-550.58"/>
</g>
<!-- 8&#45;&gt;6 -->
<g id="edge7" class="edge">
<title>8&#45;&gt;6</title>
<path fill="none" stroke="grey" stroke-width="2" d="M195.85,-503.7C191.6,-495.64 186.44,-485.89 181.73,-476.98"/>
<polygon fill="grey" stroke="grey" stroke-width="2" points="184.81,-475.31 177.04,-468.1 178.62,-478.58 184.81,-475.31"/>
</g>
</g>
</svg>
